NotoSerifBengali-ExtraCondensed.ufo
<glyph name="quotesingle" format="2">
  <advance width="190"/>
  <unicode hex="0027"/>
  <outline>
    <contour>
      <point x="75" y="483" type="line"/>
      <point x="115" y="483" type="line"/>
      <point x="142" y="714" type="line"/>
      <point x="48" y="714" type="line"/>
    </contour>
  </outline>
</glyph>
<glyph name="hyphen" format="2">
  <advance width="246"/>
  <unicode hex="002D"/>
  <outline>
    <contour>
      <point x="20" y="236" type="line"/>
      <point x="226" y="236" type="line"/>
      <point x="226" y="309" type="line"/>
      <point x="20" y="309" type="line"/>
    </contour>
  </outline>
</glyph>
<glyph name="five" format="2">
  <advance width="442"/>
  <unicode hex="0035"/>
  <outline>
    <contour>
      <point x="193" y="-10" type="curve" smooth="yes"/>
      <point x="307" y="-10"/>
      <point x="388" y="85"/>
      <point x="388" y="218" type="curve" smooth="yes"/>
      <point x="388" y="358"/>
      <point x="310" y="429"/>
      <point x="199" y="429" type="curve" smooth="yes"/>
      <point x="165" y="429"/>
      <point x="130" y="420"/>
      <point x="110" y="411" type="curve"/>
      <point x="127" y="637" type="line"/>
      <point x="281" y="637" type="line" smooth="yes"/>
      <point x="313" y="637"/>
      <point x="313" y="625"/>
      <point x="322" y="587" type="curve" smooth="yes"/>
      <point x="327" y="566" type="line"/>
      <point x="366" y="566" type="line"/>
      <point x="363" y="714" type="line"/>
      <point x="91" y="714" type="line"/>
      <point x="64" y="361" type="line"/>
      <point x="83" y="351" type="line"/>
      <point x="104" y="363"/>
      <point x="138" y="378"/>
      <point x="183" y="378" type="curve" smooth="yes"/>
      <point x="252" y="378"/>
      <point x="297" y="323"/>
      <point x="297" y="218" type="curve" smooth="yes"/>
      <point x="297" y="85"/>
      <point x="250" y="41"/>
      <point x="187" y="41" type="curve" smooth="yes"/>
      <point x="123" y="41"/>
      <point x="93" y="95"/>
      <point x="93" y="155" type="curve"/>
      <point x="61" y="155"/>
      <point x="40" y="130"/>
      <point x="40" y="94" type="curve" smooth="yes"/>
      <point x="40" y="51"/>
      <point x="75" y="-10"/>
    </contour>
  </outline>
</glyph>
<glyph name="udatta-deva" format="2">
  <unicode hex="0951"/>
  <anchor x="-299" y="-250" name="_vedic"/>
  <outline>
    <contour>
      <point x="-326" y="706" type="line"/>
      <point x="-271" y="706" type="line"/>
      <point x="-271" y="911" type="line"/>
      <point x="-326" y="911" type="line"/>
    </contour>
  </outline>
</glyph>
<glyph name="danda-deva" format="2">
  <advance width="334"/>
  <unicode hex="0964"/>
  <outline>
    <contour>
      <point x="271" y="-23" type="line"/>
      <point x="274" y="-22" type="line"/>
      <point x="274" y="585" type="line"/>
      <point x="223" y="622" type="line"/>
      <point x="220" y="622" type="line"/>
      <point x="220" y="5" type="line"/>
    </contour>
  </outline>
</glyph>
<glyph name="dbldanda-deva" format="2">
  <advance width="464"/>
  <unicode hex="0965"/>
  <outline>
    <contour>
      <point x="401" y="-23" type="line"/>
      <point x="404" y="-22" type="line"/>
      <point x="404" y="585" type="line"/>
      <point x="353" y="622" type="line"/>
      <point x="350" y="622" type="line"/>
      <point x="350" y="5" type="line"/>
    </contour>
    <contour>
      <point x="271" y="-23" type="line"/>
      <point x="274" y="-22" type="line"/>
      <point x="274" y="585" type="line"/>
      <point x="223" y="622" type="line"/>
      <point x="220" y="622" type="line"/>
      <point x="220" y="5" type="line"/>
    </contour>
  </outline>
</glyph>
<glyph name="i-beng" format="2">
  <advance width="357"/>
  <unicode hex="0987"/>
  <anchor x="206" y="89" name="bottom"/>
  <anchor x="294" y="-61" name="bottom.rakaar"/>
  <anchor x="255" y="90" name="bottom.rvocalic"/>
  <anchor x="194" y="90" name="bottom.virama"/>
  <anchor x="219" y="617" name="top"/>
  <anchor x="178" y="623" name="topright"/>
  <anchor x="178" y="0" name="vedic"/>
  <outline>
    <contour>
      <point x="262" y="612" type="curve"/>
      <point x="302" y="612" type="line"/>
      <point x="299" y="738"/>
      <point x="263" y="799"/>
      <point x="190" y="799" type="curve" smooth="yes"/>
      <point x="153" y="799"/>
      <point x="130" y="790"/>
      <point x="94" y="790" type="curve" smooth="yes"/>
      <point x="49" y="790"/>
      <point x="24" y="806"/>
      <point x="24" y="871" type="curve" smooth="yes"/>
      <point x="24" y="885"/>
      <point x="25" y="901"/>
      <point x="27" y="912" type="curve"/>
      <point x="-9" y="916" type="line"/>
      <point x="-12" y="896"/>
      <point x="-13" y="874"/>
      <point x="-13" y="859" type="curve" smooth="yes"/>
      <point x="-13" y="760"/>
      <point x="23" y="712"/>
      <point x="97" y="712" type="curve" smooth="yes"/>
      <point x="144" y="712"/>
      <point x="163" y="722"/>
      <point x="199" y="722" type="curve" smooth="yes"/>
      <point x="238" y="722"/>
      <point x="261" y="688"/>
    </contour>
    <component base="ha-beng"/>
  </outline>
</glyph>
<glyph name="u-beng" format="2">
  <advance width="439"/>
  <unicode hex="0989"/>
  <anchor x="337" y="34" name="bottom"/>
  <anchor x="376" y="-7" name="bottom.rakaar"/>
  <anchor x="323" y="59" name="bottom.rvocalic"/>
  <anchor x="281" y="15" name="bottom.virama"/>
  <anchor x="266" y="617" name="top"/>
  <anchor x="222" y="623" name="topright"/>
  <anchor x="219" y="0" name="vedic"/>
  <anchor x="234" y="-62" name="nukta"/>
  <outline>
    <contour>
      <point x="349" y="612" type="curve"/>
      <point x="388" y="612" type="line"/>
      <point x="382" y="737"/>
      <point x="341" y="801"/>
      <point x="262" y="801" type="curve" smooth="yes"/>
      <point x="222" y="801"/>
      <point x="193" y="792"/>
      <point x="151" y="792" type="curve" smooth="yes"/>
      <point x="94" y="792"/>
      <point x="70" y="814"/>
      <point x="70" y="870" type="curve" smooth="yes"/>
      <point x="70" y="880"/>
      <point x="71" y="896"/>
      <point x="73" y="912" type="curve"/>
      <point x="35" y="916" type="line"/>
      <point x="32" y="895"/>
      <point x="31" y="880"/>
      <point x="31" y="857" type="curve" smooth="yes"/>
      <point x="31" y="765"/>
      <point x="73" y="712"/>
      <point x="158" y="712" type="curve" smooth="yes"/>
      <point x="207" y="712"/>
      <point x="239" y="722"/>
      <point x="274" y="722" type="curve" smooth="yes"/>
      <point x="320" y="722"/>
      <point x="342" y="687"/>
    </contour>
    <component base="dda-beng"/>
  </outline>
</glyph>
<glyph name="ai-beng" format="2">
  <advance width="568"/>
  <unicode hex="0990"/>
  <anchor x="377" y="600" name="top"/>
  <anchor x="347" y="602" name="topright"/>
  <anchor x="284" y="0" name="vedic"/>
  <anchor x="433" y="0" name="bottom"/>
  <anchor x="433" y="3" name="bottom.rvocalic"/>
  <anchor x="419" y="6" name="bottom.virama"/>
  <outline>
    <contour>
      <point x="422" y="334" type="line"/>
      <point x="469" y="384"/>
      <point x="513" y="456"/>
      <point x="513" y="571" type="curve" smooth="yes"/>
      <point x="513" y="726"/>
      <point x="420" y="755"/>
      <point x="317" y="772" type="curve" smooth="yes"/>
      <point x="234" y="786"/>
      <point x="172" y="798"/>
      <point x="172" y="884" type="curve" smooth="yes"/>
      <point x="172" y="914"/>
      <point x="179" y="944"/>
      <point x="188" y="968" type="curve"/>
      <point x="152" y="982" type="line"/>
      <point x="138" y="948"/>
      <point x="127" y="907"/>
      <point x="127" y="865" type="curve" smooth="yes"/>
      <point x="127" y="741"/>
      <point x="207" y="716"/>
      <point x="304" y="701" type="curve" smooth="yes"/>
      <point x="397" y="687"/>
      <point x="472" y="674"/>
      <point x="472" y="557" type="curve" smooth="yes"/>
      <point x="472" y="482"/>
      <point x="445" y="435"/>
      <point x="405" y="394" type="curve"/>
    </contour>
    <component base="e-beng"/>
  </outline>
</glyph>
<glyph name="au-beng" format="2">
  <advance width="588"/>
  <unicode hex="0994"/>
  <anchor x="510" y="39" name="bottom"/>
  <anchor x="558" y="-1" name="bottom.rakaar"/>
  <anchor x="486" y="63" name="bottom.rvocalic"/>
  <anchor x="426" y="19" name="bottom.virama"/>
  <anchor x="530" y="600" name="top"/>
  <anchor x="474" y="602" name="topright"/>
  <anchor x="294" y="0" name="vedic"/>
  <outline>
    <contour>
      <point x="442" y="334" type="line"/>
      <point x="489" y="384"/>
      <point x="533" y="456"/>
      <point x="533" y="571" type="curve" smooth="yes"/>
      <point x="533" y="727"/>
      <point x="440" y="755"/>
      <point x="337" y="772" type="curve" smooth="yes"/>
      <point x="254" y="786"/>
      <point x="192" y="798"/>
      <point x="192" y="884" type="curve" smooth="yes"/>
      <point x="192" y="914"/>
      <point x="199" y="944"/>
      <point x="208" y="968" type="curve"/>
      <point x="172" y="982" type="line"/>
      <point x="158" y="948"/>
      <point x="147" y="907"/>
      <point x="147" y="865" type="curve" smooth="yes"/>
      <point x="147" y="741"/>
      <point x="227" y="716"/>
      <point x="324" y="701" type="curve" smooth="yes"/>
      <point x="417" y="687"/>
      <point x="492" y="674"/>
      <point x="492" y="557" type="curve" smooth="yes"/>
      <point x="492" y="482"/>
      <point x="465" y="435"/>
      <point x="425" y="394" type="curve"/>
    </contour>
    <component base="o-beng"/>
  </outline>
</glyph>
<glyph name="nya-beng" format="2">
  <advance width="696"/>
  <unicode hex="099E"/>
  <anchor x="425" y="30" name="bottom"/>
  <anchor x="423" y="70" name="bottom.rakaar"/>
  <anchor x="429" y="8" name="bottom.rvocalic"/>
  <anchor x="420" y="6" name="bottom.virama"/>
  <anchor x="359" y="570" name="top"/>
  <anchor x="361" y="570" name="topright"/>
  <anchor x="348" y="0" name="vedic"/>
  <outline>
    <contour>
      <point x="548" y="49" type="curve" smooth="yes"/>
      <point x="611" y="49"/>
      <point x="646" y="116"/>
      <point x="646" y="203" type="curve" smooth="yes"/>
      <point x="646" y="253"/>
      <point x="632" y="304"/>
      <point x="598" y="342" type="curve"/>
      <point x="608" y="301" type="line"/>
      <point x="630" y="333"/>
      <point x="645" y="387"/>
      <point x="645" y="441" type="curve" smooth="yes"/>
      <point x="645" y="523"/>
      <point x="610" y="591"/>
      <point x="553" y="591" type="curve" smooth="yes"/>
      <point x="473" y="591"/>
      <point x="416" y="450"/>
      <point x="410" y="374" type="curve"/>
      <point x="410" y="272" type="line"/>
      <point x="422" y="158"/>
      <point x="480" y="49"/>
    </contour>
    <contour>
      <point x="544" y="130" type="curve" smooth="yes"/>
      <point x="488" y="130"/>
      <point x="438" y="218"/>
      <point x="438" y="317" type="curve" smooth="yes"/>
      <point x="438" y="400"/>
      <point x="483" y="514"/>
      <point x="549" y="514" type="curve" smooth="yes"/>
      <point x="578" y="514"/>
      <point x="597" y="495"/>
      <point x="597" y="455" type="curve" smooth="yes"/>
      <point x="597" y="406"/>
      <point x="575" y="372"/>
      <point x="547" y="355" type="curve"/>
      <point x="586" y="344" type="line"/>
      <point x="572" y="376"/>
      <point x="551" y="384"/>
      <point x="531" y="384" type="curve" smooth="yes"/>
      <point x="500" y="384"/>
      <point x="479" y="358"/>
      <point x="479" y="319" type="curve" smooth="yes"/>
      <point x="479" y="275"/>
      <point x="503" y="251"/>
      <point x="534" y="251" type="curve" smooth="yes"/>
      <point x="563" y="251"/>
      <point x="583" y="268"/>
      <point x="600" y="296" type="curve"/>
      <point x="571" y="309" type="line"/>
      <point x="586" y="292"/>
      <point x="604" y="260"/>
      <point x="604" y="219" type="curve" smooth="yes"/>
      <point x="604" y="164"/>
      <point x="582" y="130"/>
    </contour>
    <component base="e-beng"/>
  </outline>
</glyph>
<glyph name="rrVocalicMatra-beng" format="2">
  <unicode hex="09C4"/>
  <anchor x="0" y="0" name="_bottom.rvocalic"/>
  <outline>
    <contour>
      <point x="17" y="-255" type="curve"/>
      <point x="41" y="-224" type="line"/>
      <point x="12" y="-185"/>
      <point x="-50" y="-120"/>
      <point x="-118" y="-80" type="curve"/>
      <point x="-111" y="-104" type="line"/>
      <point x="-77" y="-73"/>
      <point x="-41" y="-47"/>
      <point x="0" y="-22" type="curve"/>
      <point x="0" y="-10" type="line"/>
      <point x="-36" y="35" type="line"/>
      <point x="-80" y="10"/>
      <point x="-141" y="-31"/>
      <point x="-194" y="-81" type="curve"/>
      <point x="-155" y="-133" type="line"/>
      <point x="-87" y="-158"/>
      <point x="-31" y="-199"/>
    </contour>
    <contour>
      <point x="24" y="-395" type="curve"/>
      <point x="48" y="-364" type="line"/>
      <point x="19" y="-325"/>
      <point x="-43" y="-260"/>
      <point x="-111" y="-220" type="curve"/>
      <point x="-104" y="-244" type="line"/>
      <point x="-80" y="-222"/>
      <point x="-56" y="-203"/>
      <point x="-29" y="-185" type="curve"/>
      <point x="-88" y="-142" type="line"/>
      <point x="-121" y="-164"/>
      <point x="-155" y="-191"/>
      <point x="-187" y="-221" type="curve"/>
      <point x="-148" y="-273" type="line"/>
      <point x="-80" y="-298"/>
      <point x="-24" y="-339"/>
    </contour>
  </outline>
</glyph>
<glyph name="aiMatra-beng" format="2">
  <advance width="283"/>
  <unicode hex="09C8"/>
  <outline>
    <contour>
      <point x="243" y="612" type="curve"/>
      <point x="284" y="612" type="line"/>
      <point x="281" y="749"/>
      <point x="243" y="796"/>
      <point x="171" y="796" type="curve" smooth="yes"/>
      <point x="140" y="796"/>
      <point x="119" y="791"/>
      <point x="82" y="791" type="curve" smooth="yes"/>
      <point x="34" y="791"/>
      <point x="14" y="817"/>
      <point x="14" y="864" type="curve" smooth="yes"/>
      <point x="14" y="885"/>
      <point x="17" y="904"/>
      <point x="19" y="913" type="curve"/>
      <point x="-20" y="917" type="line"/>
      <point x="-25" y="892"/>
      <point x="-28" y="870"/>
      <point x="-28" y="843" type="curve" smooth="yes"/>
      <point x="-28" y="755"/>
      <point x="15" y="712"/>
      <point x="84" y="712" type="curve" smooth="yes"/>
      <point x="126" y="712"/>
      <point x="146" y="718"/>
      <point x="177" y="718" type="curve" smooth="yes"/>
      <point x="221" y="718"/>
      <point x="240" y="687"/>
    </contour>
    <component base="eMatra-beng"/>
  </outline>
</glyph>
<glyph name="lVocalicMatra-beng" format="2">
  <unicode hex="09E2"/>
  <anchor x="0" y="42" name="_bottom"/>
  <outline>
    <contour>
      <point x="-62" y="-277" type="line"/>
      <point x="-6" y="-269"/>
      <point x="43" y="-226"/>
      <point x="43" y="-138" type="curve" smooth="yes"/>
      <point x="43" y="-74"/>
      <point x="12" y="-43"/>
      <point x="-37" y="-24" type="curve" smooth="yes"/>
      <point x="-78" y="-8"/>
      <point x="-92" y="-1"/>
      <point x="-92" y="34" type="curve" smooth="yes"/>
      <point x="-92" y="41"/>
      <point x="-91" y="53"/>
      <point x="-86" y="65" type="curve"/>
      <point x="-113" y="75" type="line"/>
      <point x="-127" y="51"/>
      <point x="-134" y="28"/>
      <point x="-134" y="6" type="curve" smooth="yes"/>
      <point x="-134" y="-42"/>
      <point x="-112" y="-60"/>
      <point x="-60" y="-79" type="curve" smooth="yes"/>
      <point x="-12" y="-97"/>
      <point x="11" y="-115"/>
      <point x="11" y="-151" type="curve" smooth="yes"/>
      <point x="11" y="-183"/>
      <point x="-5" y="-206"/>
      <point x="-20" y="-206" type="curve" smooth="yes"/>
      <point x="-29" y="-206"/>
      <point x="-34" y="-202"/>
      <point x="-38" y="-197" type="curve"/>
      <point x="-17" y="-241" type="line"/>
      <point x="-16" y="-235"/>
      <point x="-16" y="-229"/>
      <point x="-16" y="-222" type="curve" smooth="yes"/>
      <point x="-16" y="-152"/>
      <point x="-51" y="-104"/>
      <point x="-97" y="-104" type="curve" smooth="yes"/>
      <point x="-142" y="-104"/>
      <point x="-168" y="-148"/>
      <point x="-168" y="-190" type="curve" smooth="yes"/>
      <point x="-168" y="-236"/>
      <point x="-144" y="-253"/>
      <point x="-121" y="-253" type="curve" smooth="yes"/>
      <point x="-96" y="-253"/>
      <point x="-85" y="-232"/>
      <point x="-85" y="-210" type="curve" smooth="yes"/>
      <point x="-85" y="-186"/>
      <point x="-98" y="-169"/>
      <point x="-118" y="-169" type="curve" smooth="yes"/>
      <point x="-133" y="-169"/>
      <point x="-147" y="-182"/>
      <point x="-147" y="-197" type="curve"/>
      <point x="-136" y="-202" type="line"/>
      <point x="-138" y="-198"/>
      <point x="-138" y="-194"/>
      <point x="-138" y="-189" type="curve" smooth="yes"/>
      <point x="-138" y="-167"/>
      <point x="-124" y="-149"/>
      <point x="-107" y="-149" type="curve" smooth="yes"/>
      <point x="-76" y="-149"/>
      <point x="-62" y="-188"/>
      <point x="-62" y="-238" type="curve" smooth="yes"/>
      <point x="-62" y="-249"/>
      <point x="-63" y="-262"/>
      <point x="-65" y="-273" type="curve"/>
    </contour>
  </outline>
</glyph>
<glyph name="llVocalicMatra-beng" format="2">
  <unicode hex="09E3"/>
  <anchor x="0" y="42" name="_bottom"/>
  <outline>
    <contour>
      <point x="-65" y="-273" type="curve"/>
      <point x="5" y="-268"/>
      <point x="43" y="-217"/>
      <point x="43" y="-138" type="curve" smooth="yes"/>
      <point x="43" y="-74"/>
      <point x="12" y="-43"/>
      <point x="-37" y="-24" type="curve" smooth="yes"/>
      <point x="-78" y="-8"/>
      <point x="-92" y="-1"/>
      <point x="-92" y="34" type="curve" smooth="yes"/>
      <point x="-92" y="41"/>
      <point x="-91" y="53"/>
      <point x="-86" y="65" type="curve"/>
      <point x="-113" y="75" type="line"/>
      <point x="-127" y="51"/>
      <point x="-134" y="28"/>
      <point x="-134" y="6" type="curve" smooth="yes"/>
      <point x="-134" y="-42"/>
      <point x="-112" y="-60"/>
      <point x="-60" y="-79" type="curve" smooth="yes"/>
      <point x="-12" y="-97"/>
      <point x="11" y="-115"/>
      <point x="11" y="-151" type="curve" smooth="yes"/>
      <point x="11" y="-183"/>
      <point x="-5" y="-206"/>
      <point x="-20" y="-206" type="curve" smooth="yes"/>
      <point x="-29" y="-206"/>
      <point x="-34" y="-202"/>
      <point x="-38" y="-197" type="curve"/>
      <point x="-17" y="-241" type="line"/>
      <point x="-16" y="-235"/>
      <point x="-16" y="-229"/>
      <point x="-16" y="-222" type="curve" smooth="yes"/>
      <point x="-16" y="-152"/>
      <point x="-51" y="-104"/>
      <point x="-97" y="-104" type="curve" smooth="yes"/>
      <point x="-142" y="-104"/>
      <point x="-168" y="-148"/>
      <point x="-168" y="-190" type="curve" smooth="yes"/>
      <point x="-168" y="-236"/>
      <point x="-144" y="-253"/>
      <point x="-121" y="-253" type="curve" smooth="yes"/>
      <point x="-96" y="-253"/>
      <point x="-85" y="-232"/>
      <point x="-85" y="-210" type="curve" smooth="yes"/>
      <point x="-85" y="-186"/>
      <point x="-98" y="-169"/>
      <point x="-118" y="-169" type="curve" smooth="yes"/>
      <point x="-133" y="-169"/>
      <point x="-147" y="-182"/>
      <point x="-147" y="-197" type="curve"/>
      <point x="-136" y="-202" type="line"/>
      <point x="-138" y="-198"/>
      <point x="-138" y="-194"/>
      <point x="-138" y="-189" type="curve" smooth="yes"/>
      <point x="-138" y="-167"/>
      <point x="-124" y="-149"/>
      <point x="-107" y="-149" type="curve" smooth="yes"/>
      <point x="-76" y="-149"/>
      <point x="-62" y="-188"/>
      <point x="-62" y="-238" type="curve" smooth="yes"/>
      <point x="-62" y="-249"/>
      <point x="-63" y="-262"/>
    </contour>
    <contour>
      <point x="28" y="-397" type="line"/>
      <point x="84" y="-389"/>
      <point x="133" y="-346"/>
      <point x="133" y="-258" type="curve" smooth="yes"/>
      <point x="133" y="-194"/>
      <point x="101" y="-169"/>
      <point x="42" y="-139" type="curve"/>
      <point x="20" y="-195" type="line"/>
      <point x="67" y="-203"/>
      <point x="101" y="-225"/>
      <point x="101" y="-271" type="curve" smooth="yes"/>
      <point x="101" y="-303"/>
      <point x="85" y="-326"/>
      <point x="70" y="-326" type="curve" smooth="yes"/>
      <point x="61" y="-326"/>
      <point x="56" y="-322"/>
      <point x="52" y="-317" type="curve"/>
      <point x="73" y="-361" type="line"/>
      <point x="74" y="-355"/>
      <point x="74" y="-349"/>
      <point x="74" y="-342" type="curve" smooth="yes"/>
      <point x="74" y="-272"/>
      <point x="39" y="-224"/>
      <point x="-7" y="-224" type="curve" smooth="yes"/>
      <point x="-52" y="-224"/>
      <point x="-78" y="-268"/>
      <point x="-78" y="-310" type="curve" smooth="yes"/>
      <point x="-78" y="-356"/>
      <point x="-54" y="-373"/>
      <point x="-31" y="-373" type="curve" smooth="yes"/>
      <point x="-6" y="-373"/>
      <point x="5" y="-352"/>
      <point x="5" y="-330" type="curve" smooth="yes"/>
      <point x="5" y="-306"/>
      <point x="-8" y="-289"/>
      <point x="-28" y="-289" type="curve" smooth="yes"/>
      <point x="-43" y="-289"/>
      <point x="-57" y="-302"/>
      <point x="-57" y="-317" type="curve"/>
      <point x="-46" y="-322" type="line"/>
      <point x="-48" y="-318"/>
      <point x="-48" y="-314"/>
      <point x="-48" y="-309" type="curve" smooth="yes"/>
      <point x="-48" y="-287"/>
      <point x="-34" y="-269"/>
      <point x="-17" y="-269" type="curve" smooth="yes"/>
      <point x="14" y="-269"/>
      <point x="28" y="-308"/>
      <point x="28" y="-358" type="curve" smooth="yes"/>
      <point x="28" y="-369"/>
      <point x="27" y="-382"/>
      <point x="25" y="-393" type="curve"/>
    </contour>
  </outline>
</glyph>
<glyph name="zero-beng" format="2">
  <advance width="437"/>
  <unicode hex="09E6"/>
  <outline>
    <contour>
      <point x="223" y="52" type="curve" smooth="yes"/>
      <point x="326" y="52"/>
      <point x="390" y="173"/>
      <point x="390" y="313" type="curve" smooth="yes"/>
      <point x="390" y="463"/>
      <point x="321" y="581"/>
      <point x="216" y="581" type="curve" smooth="yes"/>
      <point x="117" y="581"/>
      <point x="47" y="460"/>
      <point x="47" y="320" type="curve" smooth="yes"/>
      <point x="47" y="165"/>
      <point x="120" y="52"/>
    </contour>
    <contour>
      <point x="205" y="117" type="curve" smooth="yes"/>
      <point x="153" y="117"/>
      <point x="114" y="186"/>
      <point x="114" y="284" type="curve" smooth="yes"/>
      <point x="114" y="401"/>
      <point x="163" y="514"/>
      <point x="235" y="514" type="curve" smooth="yes"/>
      <point x="288" y="514"/>
      <point x="325" y="449"/>
      <point x="325" y="352" type="curve" smooth="yes"/>
      <point x="325" y="240"/>
      <point x="279" y="117"/>
    </contour>
  </outline>
</glyph>
<glyph name="two-beng" format="2">
  <advance width="369"/>
  <unicode hex="09E8"/>
  <outline>
    <contour>
      <point x="369" y="-35" type="curve"/>
      <point x="394" y="-2" type="line"/>
      <point x="337" y="77"/>
      <point x="242" y="172"/>
      <point x="157" y="201" type="curve"/>
      <point x="154" y="171" type="line"/>
      <point x="166" y="166"/>
      <point x="183" y="164"/>
      <point x="203" y="164" type="curve" smooth="yes"/>
      <point x="286" y="164"/>
      <point x="328" y="231"/>
      <point x="328" y="296" type="curve" smooth="yes"/>
      <point x="328" y="361"/>
      <point x="301" y="409"/>
      <point x="223" y="440" type="curve" smooth="yes"/>
      <point x="152" y="468"/>
      <point x="134" y="485"/>
      <point x="133" y="516" type="curve"/>
      <point x="109" y="516" type="line"/>
      <point x="116" y="507"/>
      <point x="127" y="500"/>
      <point x="143" y="500" type="curve" smooth="yes"/>
      <point x="176" y="500"/>
      <point x="197" y="526"/>
      <point x="197" y="561" type="curve" smooth="yes"/>
      <point x="197" y="596"/>
      <point x="175" y="624"/>
      <point x="131" y="624" type="curve" smooth="yes"/>
      <point x="86" y="624"/>
      <point x="50" y="583"/>
      <point x="50" y="522" type="curve" smooth="yes"/>
      <point x="50" y="445"/>
      <point x="99" y="411"/>
      <point x="180" y="384" type="curve" smooth="yes"/>
      <point x="256" y="359"/>
      <point x="279" y="345"/>
      <point x="279" y="306" type="curve" smooth="yes"/>
      <point x="279" y="261"/>
      <point x="240" y="235"/>
      <point x="176" y="235" type="curve" smooth="yes"/>
      <point x="130" y="235"/>
      <point x="85" y="248"/>
      <point x="51" y="271" type="curve"/>
      <point x="69" y="175" type="line"/>
      <point x="178" y="137"/>
      <point x="268" y="86"/>
    </contour>
  </outline>
</glyph>
<glyph name="five-beng" format="2">
  <advance width="418"/>
  <unicode hex="09EB"/>
  <outline>
    <contour>
      <point x="262" y="-1" type="curve" smooth="yes"/>
      <point x="310" y="-1"/>
      <point x="352" y="20"/>
      <point x="387" y="62" type="curve"/>
      <point x="368" y="102" type="line"/>
      <point x="317" y="103"/>
      <point x="294" y="136"/>
      <point x="294" y="195" type="curve" smooth="yes"/>
      <point x="294" y="278"/>
      <point x="344" y="344"/>
      <point x="388" y="367" type="curve"/>
      <point x="359" y="431" type="line"/>
      <point x="328" y="424"/>
      <point x="276" y="427"/>
      <point x="276" y="495" type="curve" smooth="yes"/>
      <point x="276" y="524"/>
      <point x="283" y="551"/>
      <point x="293" y="568" type="curve"/>
      <point x="292" y="600"/>
      <point x="280" y="622"/>
      <point x="245" y="622" type="curve" smooth="yes"/>
      <point x="157" y="622"/>
      <point x="45" y="463"/>
      <point x="45" y="295" type="curve" smooth="yes"/>
      <point x="45" y="113"/>
      <point x="145" y="-1"/>
    </contour>
    <contour>
      <point x="249" y="63" type="curve" smooth="yes"/>
      <point x="162" y="63"/>
      <point x="111" y="143"/>
      <point x="111" y="265" type="curve" smooth="yes"/>
      <point x="111" y="400"/>
      <point x="168" y="498"/>
      <point x="247" y="535" type="curve"/>
      <point x="230" y="543" type="line"/>
      <point x="224" y="531"/>
      <point x="220" y="520"/>
      <point x="220" y="508" type="curve" smooth="yes"/>
      <point x="220" y="415"/>
      <point x="283" y="391"/>
      <point x="325" y="391" type="curve"/>
      <point x="313" y="414" type="line"/>
      <point x="261" y="386"/>
      <point x="227" y="301"/>
      <point x="227" y="221" type="curve" smooth="yes"/>
      <point x="227" y="140"/>
      <point x="264" y="80"/>
      <point x="318" y="72" type="curve"/>
      <point x="310" y="87" type="line"/>
      <point x="297" y="74"/>
      <point x="276" y="63"/>
    </contour>
  </outline>
</glyph>
<glyph name="six-beng" format="2">
  <advance width="487"/>
  <unicode hex="09EC"/>
  <outline>
    <contour>
      <point x="290" y="12" type="curve" smooth="yes"/>
      <point x="399" y="12"/>
      <point x="452" y="104"/>
      <point x="452" y="224" type="curve" smooth="yes"/>
      <point x="452" y="320"/>
      <point x="418" y="386"/>
      <point x="373" y="431" type="curve"/>
      <point x="349" y="365"/>
      <point x="304" y="315"/>
      <point x="270" y="315" type="curve" smooth="yes"/>
      <point x="257" y="315"/>
      <point x="248" y="325"/>
      <point x="249" y="343" type="curve" smooth="yes"/>
      <point x="249" y="532" type="line" smooth="yes"/>
      <point x="249" y="592"/>
      <point x="220" y="624"/>
      <point x="178" y="624" type="curve" smooth="yes"/>
      <point x="139" y="624"/>
      <point x="119" y="595"/>
      <point x="119" y="560" type="curve" smooth="yes"/>
      <point x="119" y="524"/>
      <point x="140" y="497"/>
      <point x="177" y="497" type="curve" smooth="yes"/>
      <point x="207" y="497"/>
      <point x="217" y="517"/>
      <point x="219" y="545" type="curve"/>
      <point x="197" y="532" type="line"/>
      <point x="197" y="341" type="line" smooth="yes"/>
      <point x="197" y="310"/>
      <point x="204" y="286"/>
      <point x="223" y="267" type="curve" smooth="yes"/>
      <point x="240" y="250"/>
      <point x="260" y="242"/>
      <point x="283" y="242" type="curve" smooth="yes"/>
      <point x="332" y="242"/>
      <point x="383" y="288"/>
      <point x="415" y="355" type="curve"/>
      <point x="375" y="330" type="line"/>
      <point x="393" y="312"/>
      <point x="406" y="285"/>
      <point x="406" y="242" type="curve" smooth="yes"/>
      <point x="406" y="156"/>
      <point x="361" y="97"/>
      <point x="290" y="97" type="curve" smooth="yes"/>
      <point x="170" y="97"/>
      <point x="115" y="207"/>
      <point x="80" y="448" type="curve"/>
      <point x="42" y="442" type="line"/>
      <point x="76" y="138"/>
      <point x="157" y="12"/>
    </contour>
  </outline>
</glyph>
<glyph name="rupee-beng" format="2">
  <advance width="428"/>
  <unicode hex="09F3"/>
  <outline>
    <contour>
      <point x="214" y="31" type="curve" smooth="yes"/>
      <point x="311" y="31"/>
      <point x="378" y="182"/>
      <point x="378" y="288" type="curve" smooth="yes"/>
      <point x="378" y="370"/>
      <point x="339" y="405"/>
      <point x="295" y="405" type="curve" smooth="yes"/>
      <point x="245" y="405"/>
      <point x="218" y="365"/>
      <point x="218" y="325" type="curve" smooth="yes"/>
      <point x="218" y="281"/>
      <point x="246" y="246"/>
      <point x="291" y="246" type="curve" smooth="yes"/>
      <point x="309" y="246"/>
      <point x="325" y="258"/>
      <point x="335" y="274" type="curve"/>
      <point x="309" y="298" type="line"/>
      <point x="305" y="194"/>
      <point x="255" y="93"/>
      <point x="199" y="93" type="curve" smooth="yes"/>
      <point x="173" y="93"/>
      <point x="161" y="109"/>
      <point x="161" y="146" type="curve" smooth="yes"/>
      <point x="161" y="641" type="line" smooth="yes"/>
      <point x="161" y="701"/>
      <point x="135" y="733"/>
      <point x="94" y="733" type="curve" smooth="yes"/>
      <point x="53" y="733"/>
      <point x="32" y="705"/>
      <point x="32" y="668" type="curve" smooth="yes"/>
      <point x="32" y="632"/>
      <point x="55" y="606"/>
      <point x="89" y="606" type="curve" smooth="yes"/>
      <point x="118" y="606"/>
      <point x="134" y="626"/>
      <point x="139" y="654" type="curve"/>
      <point x="110" y="654" type="line"/>
      <point x="110" y="144" type="line" smooth="yes"/>
      <point x="110" y="70"/>
      <point x="157" y="31"/>
    </contour>
    <contour>
      <point x="48" y="468" type="line"/>
      <point x="392" y="468" type="line"/>
      <point x="367" y="521" type="line"/>
      <point x="21" y="521" type="line"/>
    </contour>
  </outline>
</glyph>
<glyph name="oneNumr-beng" format="2">
  <advance width="367"/>
  <unicode hex="09F4"/>
  <outline>
    <contour>
      <point x="85" y="7" type="line"/>
      <point x="191" y="105"/>
      <point x="286" y="266"/>
      <point x="331" y="541" type="curve"/>
      <point x="292" y="548" type="line"/>
      <point x="236" y="296"/>
      <point x="128" y="164"/>
      <point x="17" y="71" type="curve"/>
    </contour>
  </outline>
</glyph>
<glyph name="uni1CD0" format="2">
  <unicode hex="1CD0"/>
  <note>
uni1CD0
</note>
  <anchor x="-299" y="-250" name="_vedic"/>
  <outline>
    <contour>
      <point x="-379" y="700" type="line"/>
      <point x="-276" y="853" type="line"/>
      <point x="-299" y="853" type="line"/>
      <point x="-189" y="700" type="line"/>
      <point x="-155" y="724" type="line"/>
      <point x="-304" y="934" type="line"/>
      <point x="-441" y="740" type="line"/>
    </contour>
  </outline>
</glyph>
<glyph name="uni1CD5" format="2">
  <unicode hex="1CD5"/>
  <note>
uni1CD5
</note>
  <anchor x="-299" y="370" name="_vedic"/>
  <outline>
    <contour>
      <point x="-352" y="-287" type="curve" smooth="yes"/>
      <point x="-300" y="-287"/>
      <point x="-262" y="-242"/>
      <point x="-262" y="-181" type="curve" smooth="yes"/>
      <point x="-262" y="-127" type="line"/>
      <point x="-321" y="-100" type="line"/>
      <point x="-321" y="-157" type="line" smooth="yes"/>
      <point x="-321" y="-214"/>
      <point x="-345" y="-242"/>
      <point x="-374" y="-242" type="curve" smooth="yes"/>
      <point x="-395" y="-242"/>
      <point x="-414" y="-227"/>
      <point x="-414" y="-198" type="curve" smooth="yes"/>
      <point x="-414" y="-171"/>
      <point x="-405" y="-143"/>
      <point x="-382" y="-104" type="curve"/>
      <point x="-445" y="-68" type="line"/>
      <point x="-462" y="-96"/>
      <point x="-474" y="-132"/>
      <point x="-474" y="-164" type="curve" smooth="yes"/>
      <point x="-474" y="-231"/>
      <point x="-417" y="-287"/>
    </contour>
    <contour>
      <point x="-207" y="-287" type="curve" smooth="yes"/>
      <point x="-152" y="-287"/>
      <point x="-123" y="-246"/>
      <point x="-123" y="-191" type="curve" smooth="yes"/>
      <point x="-123" y="-147"/>
      <point x="-140" y="-106"/>
      <point x="-170" y="-70" type="curve"/>
      <point x="-200" y="-91" type="line"/>
      <point x="-181" y="-120"/>
      <point x="-172" y="-146"/>
      <point x="-172" y="-174" type="curve" smooth="yes"/>
      <point x="-172" y="-209"/>
      <point x="-190" y="-235"/>
      <point x="-223" y="-235" type="curve" smooth="yes"/>
      <point x="-252" y="-235"/>
      <point x="-274" y="-218"/>
      <point x="-290" y="-186" type="curve"/>
      <point x="-312" y="-201" type="line"/>
      <point x="-291" y="-256"/>
      <point x="-254" y="-287"/>
    </contour>
  </outline>
</glyph>
<glyph name="uni1CF5" format="2">
  <advance width="384"/>
  <unicode hex="1CF5"/>
  <outline>
    <contour>
      <point x="333" y="454" type="line"/>
      <point x="294" y="480" type="line"/>
      <point x="197" y="332" type="line"/>
      <point x="99" y="480" type="line"/>
      <point x="46" y="446" type="line"/>
      <point x="161" y="279" type="line"/>
      <point x="52" y="117" type="line"/>
      <point x="91" y="91" type="line"/>
      <point x="188" y="240" type="line"/>
      <point x="285" y="94" type="line"/>
      <point x="338" y="128" type="line"/>
      <point x="225" y="293" type="line"/>
    </contour>
  </outline>
</glyph>
<glyph name="assastroke" format="2">
  <advance width="302"/>
  <anchor x="115" y="78" name="_nukta"/>
  <outline>
    <contour>
      <point x="191" y="-8" type="curve"/>
      <point x="212" y="13" type="line"/>
      <point x="186" y="84"/>
      <point x="134" y="156"/>
      <point x="56" y="185" type="curve"/>
      <point x="48" y="122" type="line"/>
      <point x="116" y="96"/>
      <point x="153" y="56"/>
    </contour>
  </outline>
</glyph>
<glyph name="iMatra-beng.wide1" format="2">
  <advance width="185"/>
  <anchor x="541" y="644" name="top"/>
  <anchor x="457" y="592" name="topright"/>
  <outline>
    <contour>
      <point x="114" y="-25" type="line"/>
      <point x="118" y="-24" type="line"/>
      <point x="118" y="570" type="line"/>
      <point x="210" y="570" type="line"/>
      <point x="182" y="622" type="line"/>
      <point x="113" y="622" type="line"/>
      <point x="99" y="647"/>
      <point x="81" y="678"/>
      <point x="71" y="701" type="curve"/>
      <point x="114" y="798"/>
      <point x="183" y="849"/>
      <point x="263" y="849" type="curve" smooth="yes"/>
      <point x="351" y="849"/>
      <point x="446" y="802"/>
      <point x="543" y="687" type="curve"/>
      <point x="575" y="715" type="line"/>
      <point x="493" y="820"/>
      <point x="382" y="919"/>
      <point x="243" y="919" type="curve" smooth="yes"/>
      <point x="145" y="919"/>
      <point x="42" y="846"/>
      <point x="-2" y="719" type="curve"/>
      <point x="19" y="686"/>
      <point x="46" y="653"/>
      <point x="67" y="622" type="curve"/>
      <point x="-25" y="622" type="line"/>
      <point x="3" y="570" type="line"/>
      <point x="67" y="570" type="line"/>
      <point x="67" y="3" type="line"/>
    </contour>
  </outline>
</glyph>
<glyph name="iiMatra_reph_candrabindu-beng" format="2">
  <advance width="185"/>
  <anchor x="108" y="665" name="top"/>
  <anchor x="-8" y="610" name="topright"/>
  <anchor x="-167" y="0" name="vedic"/>
  <outline>
    <contour>
      <point x="-4" y="835" type="curve" smooth="yes"/>
      <point x="69" y="835"/>
      <point x="100" y="899"/>
      <point x="110" y="992" type="curve"/>
      <point x="79" y="1001" type="line"/>
      <point x="69" y="954"/>
      <point x="52" y="906"/>
      <point x="-6" y="906" type="curve" smooth="yes"/>
      <point x="-57" y="906"/>
      <point x="-80" y="954"/>
      <point x="-93" y="1001" type="curve"/>
      <point x="-124" y="992" type="line"/>
      <point x="-112" y="899"/>
      <point x="-75" y="835"/>
    </contour>
    <contour>
      <point x="-6" y="942" type="curve" smooth="yes"/>
      <point x="19" y="942"/>
      <point x="34" y="961"/>
      <point x="34" y="990" type="curve" smooth="yes"/>
      <point x="34" y="1020"/>
      <point x="19" y="1039"/>
      <point x="-6" y="1039" type="curve" smooth="yes"/>
      <point x="-32" y="1039"/>
      <point x="-48" y="1020"/>
      <point x="-48" y="990" type="curve" smooth="yes"/>
      <point x="-48" y="961"/>
      <point x="-32" y="942"/>
    </contour>
    <component base="iiMatra-beng"/>
    <component base="reph-beng" xOffset="72" yOffset="-58"/>
  </outline>
</glyph>
<glyph name="sh-beng" format="2">
  <advance width="282"/>
  <outline>
    <contour>
      <point x="78" y="290" type="curve" smooth="yes"/>
      <point x="115" y="290"/>
      <point x="141" y="322"/>
      <point x="151" y="374" type="curve"/>
      <point x="161" y="316"/>
      <point x="189" y="290"/>
      <point x="222" y="290" type="curve" smooth="yes"/>
      <point x="256" y="290"/>
      <point x="281" y="313"/>
      <point x="281" y="366" type="curve" smooth="yes"/>
      <point x="281" y="422"/>
      <point x="246" y="467"/>
      <point x="191" y="501" type="curve"/>
      <point x="199" y="483" type="line"/>
      <point x="209" y="531"/>
      <point x="227" y="554"/>
      <point x="250" y="554" type="curve" smooth="yes"/>
      <point x="274" y="554"/>
      <point x="306" y="511"/>
      <point x="335" y="416" type="curve"/>
      <point x="362" y="429" type="line"/>
      <point x="323" y="576"/>
      <point x="278" y="629"/>
      <point x="228" y="629" type="curve" smooth="yes"/>
      <point x="195" y="629"/>
      <point x="166" y="605"/>
      <point x="141" y="543" type="curve"/>
      <point x="110" y="599"/>
      <point x="85" y="622"/>
      <point x="42" y="622" type="curve" smooth="yes"/>
      <point x="-25" y="622" type="line"/>
      <point x="3" y="570" type="line"/>
      <point x="41" y="570" type="line" smooth="yes"/>
      <point x="74" y="570"/>
      <point x="99" y="550"/>
      <point x="120" y="498" type="curve"/>
      <point x="129" y="513" type="line"/>
      <point x="42" y="477"/>
      <point x="18" y="417"/>
      <point x="18" y="366" type="curve" smooth="yes"/>
      <point x="18" y="310"/>
      <point x="51" y="290"/>
    </contour>
  </outline>
</glyph>
<glyph name="ss-beng" format="2">
  <advance width="328"/>
  <outline>
    <contour>
      <point x="158" y="317" type="curve" smooth="yes"/>
      <point x="231" y="317"/>
      <point x="299" y="383"/>
      <point x="299" y="485" type="curve" smooth="yes"/>
      <point x="299" y="567"/>
      <point x="253" y="608"/>
      <point x="180" y="608" type="curve" smooth="yes"/>
      <point x="101" y="608"/>
      <point x="27" y="559"/>
      <point x="27" y="461" type="curve" smooth="yes"/>
      <point x="27" y="378"/>
      <point x="87" y="317"/>
    </contour>
    <contour>
      <point x="131" y="382" type="curve" smooth="yes"/>
      <point x="110" y="382"/>
      <point x="89" y="396"/>
      <point x="89" y="428" type="curve" smooth="yes"/>
      <point x="89" y="490"/>
      <point x="152" y="561"/>
      <point x="201" y="561" type="curve" smooth="yes"/>
      <point x="221" y="561"/>
      <point x="242" y="548"/>
      <point x="242" y="512" type="curve" smooth="yes"/>
      <point x="242" y="455"/>
      <point x="179" y="382"/>
    </contour>
    <contour>
      <point x="232" y="375" type="line"/>
      <point x="256" y="406" type="line"/>
      <point x="110" y="557" type="line"/>
      <point x="80" y="527" type="line"/>
    </contour>
    <contour>
      <point x="2" y="570" type="line"/>
      <point x="353" y="570" type="line"/>
      <point x="325" y="622" type="line"/>
      <point x="-25" y="622" type="line"/>
    </contour>
  </outline>
</glyph>
<glyph name="tta_iiMatra-beng" format="2">
  <advance width="555"/>
  <anchor x="248" y="25" name="bottom"/>
  <anchor x="291" y="5" name="bottom.rakaar"/>
  <anchor x="246" y="25" name="bottom.rvocalic"/>
  <anchor x="197" y="41" name="bottom.virama"/>
  <anchor x="478" y="665" name="top"/>
  <anchor x="362" y="610" name="topright"/>
  <anchor x="277" y="0" name="vedic"/>
  <anchor x="177" y="-72" name="nukta"/>
  <outline>
    <contour>
      <point x="484" y="-25" type="line"/>
      <point x="488" y="-24" type="line"/>
      <point x="488" y="570" type="line"/>
      <point x="580" y="570" type="line"/>
      <point x="552" y="622" type="line"/>
      <point x="485" y="622" type="line"/>
      <point x="469" y="827"/>
      <point x="364" y="918"/>
      <point x="236" y="918" type="curve" smooth="yes"/>
      <point x="125" y="918"/>
      <point x="73" y="863"/>
      <point x="73" y="791" type="curve" smooth="yes"/>
      <point x="73" y="767"/>
      <point x="79" y="745"/>
      <point x="88" y="730" type="curve"/>
      <point x="92" y="747" type="line"/>
      <point x="37" y="747"/>
      <point x="12" y="776"/>
      <point x="12" y="837" type="curve" smooth="yes"/>
      <point x="12" y="850"/>
      <point x="13" y="864"/>
      <point x="15" y="880" type="curve"/>
      <point x="-19" y="884" type="line"/>
      <point x="-23" y="862"/>
      <point x="-25" y="842"/>
      <point x="-25" y="823" type="curve" smooth="yes"/>
      <point x="-25" y="735"/>
      <point x="11" y="677"/>
      <point x="93" y="677" type="curve" smooth="yes"/>
      <point x="140" y="677"/>
      <point x="188" y="691"/>
      <point x="227" y="691" type="curve" smooth="yes"/>
      <point x="268" y="691"/>
      <point x="293" y="673"/>
      <point x="300" y="612" type="curve"/>
      <point x="338" y="612" type="line"/>
      <point x="332" y="706"/>
      <point x="299" y="765"/>
      <point x="230" y="765" type="curve" smooth="yes"/>
      <point x="196" y="765"/>
      <point x="176" y="758"/>
      <point x="148" y="758" type="curve" smooth="yes"/>
      <point x="125" y="758"/>
      <point x="115" y="768"/>
      <point x="115" y="787" type="curve" smooth="yes"/>
      <point x="115" y="826"/>
      <point x="163" y="847"/>
      <point x="237" y="847" type="curve" smooth="yes"/>
      <point x="346" y="847"/>
      <point x="430" y="796"/>
      <point x="435" y="622" type="curve"/>
      <point x="345" y="622" type="line"/>
      <point x="373" y="570" type="line"/>
      <point x="437" y="570" type="line"/>
      <point x="437" y="3" type="line"/>
    </contour>
    <component base="ddha-beng" xOffset="1"/>
  </outline>
</glyph>
<glyph name="uni1CF5.stack" format="2">
  <anchor x="-299" y="0" name="_vedic"/>
  <outline>
    <contour>
      <point x="-172" y="966" type="line"/>
      <point x="-209" y="989" type="line"/>
      <point x="-296" y="859" type="line"/>
      <point x="-382" y="989" type="line"/>
      <point x="-430" y="959" type="line"/>
      <point x="-328" y="811" type="line"/>
      <point x="-427" y="668" type="line"/>
      <point x="-390" y="645" type="line"/>
      <point x="-304" y="775" type="line"/>
      <point x="-218" y="645" type="line"/>
      <point x="-169" y="675" type="line"/>
      <point x="-271" y="823" type="line"/>
    </contour>
  </outline>
</glyph>
<glyph name="yNukta_ba-beng" format="2">
  <advance width="393"/>
  <anchor x="333" y="-152" name="bottom"/>
  <anchor x="337" y="-112" name="bottom.rakaar"/>
  <anchor x="337" y="-170" name="bottom.rvocalic"/>
  <anchor x="323" y="-176" name="bottom.virama"/>
  <anchor x="328" y="570" name="top"/>
  <anchor x="330" y="570" name="topright"/>
  <outline>
    <contour>
      <point x="288" y="135" type="curve"/>
      <point x="337" y="135" type="line"/>
      <point x="337" y="570" type="line"/>
      <point x="418" y="570" type="line"/>
      <point x="389" y="622" type="line"/>
      <point x="-25" y="622" type="line"/>
      <point x="34" y="510" type="line"/>
      <point x="86" y="500"/>
      <point x="133" y="477"/>
      <point x="169" y="429" type="curve"/>
      <point x="165" y="455" type="line"/>
      <point x="124" y="430"/>
      <point x="59" y="387"/>
      <point x="16" y="348" type="curve"/>
      <point x="71" y="255" type="line"/>
      <point x="162" y="245"/>
      <point x="240" y="209"/>
    </contour>
    <contour>
      <point x="124" y="100" type="curve" smooth="yes"/>
      <point x="149" y="100"/>
      <point x="172" y="123"/>
      <point x="172" y="158" type="curve" smooth="yes"/>
      <point x="172" y="192"/>
      <point x="150" y="217"/>
      <point x="124" y="217" type="curve" smooth="yes"/>
      <point x="97" y="217"/>
      <point x="74" y="193"/>
      <point x="74" y="158" type="curve" smooth="yes"/>
      <point x="74" y="124"/>
      <point x="98" y="100"/>
    </contour>
    <contour>
      <point x="332" y="-195" type="line"/>
      <point x="337" y="-194" type="line"/>
      <point x="337" y="279" type="line"/>
      <point x="283" y="279" type="line"/>
      <point x="283" y="-123" type="line"/>
      <point x="291" y="-107" type="line"/>
      <point x="260" y="-42"/>
      <point x="200" y="-13"/>
      <point x="143" y="7" type="curve"/>
      <point x="151" y="-17" type="line"/>
      <point x="189" y="14"/>
      <point x="252" y="52"/>
      <point x="298" y="73" type="curve"/>
      <point x="294" y="161" type="line"/>
      <point x="227" y="132"/>
      <point x="149" y="86"/>
      <point x="83" y="37" type="curve"/>
      <point x="138" y="-64" type="line"/>
      <point x="194" y="-73"/>
      <point x="255" y="-98"/>
      <point x="290" y="-159" type="curve"/>
    </contour>
    <contour>
      <point x="283" y="171" type="line"/>
      <point x="291" y="187" type="line"/>
      <point x="242" y="272"/>
      <point x="168" y="318"/>
      <point x="93" y="334" type="curve"/>
      <point x="92" y="300" type="line"/>
      <point x="129" y="333"/>
      <point x="185" y="374"/>
      <point x="229" y="399" type="curve"/>
      <point x="196" y="481"/>
      <point x="149" y="542"/>
      <point x="64" y="583" type="curve"/>
      <point x="63" y="570" type="line"/>
      <point x="283" y="570" type="line"/>
    </contour>
  </outline>
</glyph>
<glyph name="yNukta_ra-beng" format="2">
  <advance width="456"/>
  <anchor x="396" y="-25" name="bottom"/>
  <anchor x="401" y="-50" name="bottom.rvocalic"/>
  <anchor x="386" y="-49" name="bottom.virama"/>
  <anchor x="391" y="570" name="top"/>
  <anchor x="393" y="570" name="topright"/>
  <outline>
    <contour>
      <point x="395" y="-67" type="line"/>
      <point x="401" y="-66" type="line"/>
      <point x="401" y="602" type="line"/>
      <point x="350" y="602" type="line"/>
      <point x="350" y="181" type="line"/>
      <point x="357" y="190" type="line"/>
      <point x="318" y="262"/>
      <point x="243" y="303"/>
      <point x="158" y="324" type="curve"/>
      <point x="164" y="300" type="line"/>
      <point x="201" y="333"/>
      <point x="257" y="374"/>
      <point x="301" y="399" type="curve"/>
      <point x="268" y="481"/>
      <point x="221" y="542"/>
      <point x="136" y="583" type="curve"/>
      <point x="135" y="570" type="line"/>
      <point x="481" y="570" type="line"/>
      <point x="454" y="622" type="line"/>
      <point x="-25" y="622" type="line"/>
      <point x="3" y="570" type="line"/>
      <point x="85" y="570" type="line"/>
      <point x="65" y="589" type="line"/>
      <point x="106" y="510" type="line"/>
      <point x="158" y="500"/>
      <point x="205" y="477"/>
      <point x="241" y="429" type="curve"/>
      <point x="237" y="455" type="line"/>
      <point x="196" y="430"/>
      <point x="131" y="387"/>
      <point x="88" y="348" type="curve"/>
      <point x="145" y="249" type="line"/>
      <point x="242" y="235"/>
      <point x="307" y="212"/>
      <point x="354" y="140" type="curve"/>
      <point x="350" y="163" type="line"/>
      <point x="350" y="64"/>
      <point x="352" y="45"/>
      <point x="356" y="20" type="curve"/>
      <point x="327" y="72"/>
      <point x="291" y="85"/>
      <point x="253" y="85" type="curve" smooth="yes"/>
      <point x="221" y="85"/>
      <point x="185" y="81"/>
      <point x="154" y="81" type="curve" smooth="yes"/>
      <point x="106" y="81"/>
      <point x="75" y="104"/>
      <point x="75" y="167" type="curve" smooth="yes"/>
      <point x="75" y="196"/>
      <point x="80" y="222"/>
      <point x="84" y="242" type="curve"/>
      <point x="43" y="250" type="line"/>
      <point x="38" y="226"/>
      <point x="30" y="185"/>
      <point x="30" y="143" type="curve" smooth="yes"/>
      <point x="30" y="36"/>
      <point x="93" y="1"/>
      <point x="157" y="1" type="curve" smooth="yes"/>
      <point x="199" y="1"/>
      <point x="239" y="10"/>
      <point x="273" y="10" type="curve" smooth="yes"/>
      <point x="309" y="10"/>
      <point x="339" y="0"/>
      <point x="362" y="-40" type="curve"/>
    </contour>
    <contour>
      <point x="203" y="106" type="curve" smooth="yes"/>
      <point x="229" y="106"/>
      <point x="253" y="126"/>
      <point x="253" y="158" type="curve" smooth="yes"/>
      <point x="253" y="189"/>
      <point x="230" y="211"/>
      <point x="203" y="211" type="curve" smooth="yes"/>
      <point x="175" y="211"/>
      <point x="152" y="189"/>
      <point x="152" y="158" type="curve" smooth="yes"/>
      <point x="152" y="127"/>
      <point x="176" y="106"/>
    </contour>
  </outline>
</glyph>
